/* XPM */
static const char *sun[] = {
/* columns rows colors chars-per-pixel */
"24 24 87 1 ",
"  c None",
". c #AD0000",
"X c #AE0000",
"o c #AF0100",
"O c #AF0201",
"+ c #B10602",
"@ c #B20B02",
"# c #B81905",
"$ c #BE2809",
"% c #C8430F",
"& c #CB4811",
"* c #DD4B12",
"= c #DE4B12",
"- c #DE4B13",
"; c #DD4C11",
": c #DE4C12",
"> c #DE4D12",
", c #DE4C13",
"< c #DE4F13",
"1 c #CF5413",
"2 c #DE5414",
"3 c #D05815",
"4 c #E05E16",
"5 c #D76919",
"6 c #DA711B",
"7 c #E26818",
"8 c #E3861F",
"9 c #E5861F",
"0 c #E3881F",
"q c #E5881F",
"w c #E4891F",
"e c #DC8727",
"r c #E08421",
"t c #E58E21",
"y c #E68E21",
"u c #E68F21",
"i c #E78F22",
"p c #E69021",
"a c #E79022",
"s c #E79122",
"d c #E69322",
"f c #E79625",
"g c #E99E28",
"h c #E9A529",
"j c #ECAC2F",
"k c #EBB62A",
"l c #ECB72B",
"z c #EBB82B",
"x c #EBBC2C",
"c c #EBBE2C",
"v c #ECBC2C",
"b c #ECBD2C",
"n c #ECBE2E",
"m c #ECBE2F",
"M c #ECAE30",
"N c #EAB335",
"B c #EDC237",
"V c #EFC53D",
"C c #EEC43E",
"Z c #F1C93D",
"A c #F2CA3D",
"S c #F3CB3E",
"D c #F3CD3F",
"F c #F3CE3E",
"G c #F3CE3F",
"H c #EFAD54",
"J c #F5D542",
"K c #F5D643",
"L c #F6D643",
"P c #F4D544",
"I c #F5D844",
"U c #F2CF58",
"Y c #F2D058",
"T c #F3D15B",
"R c #F6DC87",
"E c #F6DD89",
"W c #F7E082",
"Q c #F6E182",
"! c #F7E184",
"~ c #F7E186",
"^ c #F7E187",
"/ c #F6E287",
"( c #F8E693",
") c #F9E694",
"_ c #F9E794",
"` c #F9E895",
"' c #F9E997",
/* pixels */
"                        ",
"           vd           ",
"       >   vp   o       ",
"       >>  vp  oo       ",
"       >>2zxuwooo       ",
"   vvv ;>2xxuu#o+ uup   ",
"    vxbbhHE(IFe6uuuu    ",
"    BxbB~'''IIIFfuup    ",
"     vB/''''IIIIFuu     ",
" >>><sT'''''IIIIIM1oooo ",
"  >->2)'''''IIIIIZ@ooo  ",
"   -7l''''''IIIILLr$.   ",
"    Bx('''''IIIIIJuuu   ",
"  vvvvT'''''IIIILZuuuu  ",
" vvvvvY'''''IIIIIMuuuuu ",
"     ugE''''IIIIC51     ",
"    >>-NW'''TIIFe+oo    ",
"    >>>lBYT'IJjp8ooo    ",
"   >>- xvvv9&uuuu ooo   ",
"       vvvw-o&uuu       ",
"       vv  >o  pu       ",
"       v   >o   u       ",
"           >+           ",
"                        "
};
